# xmcd
#
# Track frame offsets:
#	150
#	11785
#	23720
#	38570
#	52455
#	65640
#	81715
#	94940
#	106245
#	118692
#
# Disc length: 1710 seconds
#
# Revision: 3
# Processed by: cddbd v1.5.1PL0 Copyright (c) Steve Scherf et al.
# Submitted via: audiograbber 1.83.01
#
DISCID=8b06ac0a
DTITLE=Various Artist - Greatest Country Hits of the 80's - 1980
DYEAR=1988
DGENRE=Country
TTITLE0=Willie Nelson - On The Road Again
TTITLE1=Lacy Dalton - Hillbilly Girl With The Blues
TTITLE2=George Jones - He Stopped Loving Her Today
TTITLE3=Willie Nelson - My Heros Have Always Been Cowboys
TTITLE4=Moe Bandy - Following The Feeling
TTITLE5=Crystal Gayle - It's Like We Never Said Goodbye
TTITLE6=Mickey Gilley - True Love Ways
TTITLE7=Janie Fricke - Down To My Last Broken Heart
TTITLE8=Larry Gatlin - Take Me To Your Lovin' Place
TTITLE9=Charly McClain - Who's Cheatin' Who
EXTD=YEAR: 1988
EXTT0=
EXTT1=Lacy J. Dalton
EXTT2=George Jones
EXTT3=Willie Nelson
EXTT4=Moe Bandy
EXTT5=Crystal Gayle
EXTT6=Mickey Gilley
EXTT7=Janie Frickie
EXTT8=Larry Gatlin and The Gatlin Brothers
EXTT9=Charly McClain
PLAYORDER=
